<svg width="38" height="38" viewBox="0 0 38 38" fill="none" xmlns="http://www.w3.org/2000/svg">
<path d="M0.500205 19.2382C0.488585 16.8445 0.970807 14.4857 1.90039 12.2256C2.7893 10.0643 4.05005 8.14125 5.68844 6.46219C6.93757 5.17821 8.32033 4.07433 9.889 3.20284C11.8353 2.11639 13.9094 1.40177 16.1114 1.05318C17.7846 0.785924 19.4637 0.745255 21.1428 0.942791C23.4028 1.20424 25.5467 1.84333 27.5743 2.89492C29.3928 3.84193 31.0022 5.04458 32.4082 6.52029C34.186 8.37946 35.5106 10.5175 36.3996 12.9286C37.2594 15.27 37.608 17.6869 37.4918 20.1677C37.3872 22.4801 36.8585 24.6995 35.9057 26.8201C35.5862 27.5289 35.2492 28.2203 34.8367 28.8768C34.6856 29.115 34.6914 29.3241 34.918 29.5217C35.0342 29.6262 35.1388 29.7366 35.2318 29.8645C35.4932 30.213 35.348 30.6546 34.9238 30.7534C33.6515 31.0439 32.3733 31.3227 31.1009 31.6074C30.6826 31.7004 30.2701 31.805 29.8518 31.8805C29.236 31.9909 28.9455 31.683 29.1256 31.0903C29.3986 30.1724 29.7007 29.266 29.9912 28.3539C30.212 27.6509 30.427 26.9479 30.6652 26.2507C30.8627 25.6581 31.2752 25.5768 31.7052 26.0357C31.8155 26.1577 31.9259 26.2797 32.0363 26.4018C32.1758 26.5528 32.2687 26.5296 32.3617 26.3495C32.9427 25.2688 33.361 24.1301 33.6631 22.9391C34.0001 21.597 34.1105 20.2316 34.0814 18.8489C34.0349 16.554 33.4714 14.3927 32.4256 12.3534C31.4379 10.442 30.0958 8.8152 28.4226 7.47892C26.941 6.29371 25.2852 5.42803 23.4725 4.87028C21.2009 4.17309 18.8943 4.02785 16.5529 4.38806C15.0714 4.62046 13.6596 5.08525 12.3117 5.75339C10.836 6.48543 9.50554 7.42664 8.33775 8.59442C6.90852 10.0295 5.79302 11.6737 5.02611 13.5561C3.92804 16.2461 3.64336 19.029 4.11396 21.8758C4.70657 25.4431 6.41468 28.4236 9.15695 30.7824C11.6087 32.8914 14.4614 34.0708 17.6859 34.3555C19.3475 34.5066 20.9917 34.3729 22.6127 33.9837C23.5248 33.7629 24.4137 33.4608 25.2678 33.0599C25.9476 32.7404 26.6273 32.8507 27.1618 33.3853C27.3652 33.5886 27.5743 33.7978 27.7544 34.0243C28.2541 34.6634 28.0565 35.4942 27.3303 35.8603C25.2504 36.906 23.0426 37.5393 20.7245 37.7485C17.2327 38.068 13.8978 37.4522 10.7489 35.8893C7.71029 34.3729 5.26432 32.171 3.42258 29.3009C2.46976 27.8194 1.74933 26.2333 1.25549 24.5368C0.755841 22.8229 0.494395 21.0799 0.500205 19.2382Z" fill="#E6E6E6"/>
<path d="M20.5444 12.673C20.5444 13.8814 20.5502 15.0899 20.5386 16.3042C20.5386 16.5482 20.6141 16.7225 20.8175 16.8677C21.9562 17.6753 22.4036 19.2091 21.8052 20.5396C21.6832 20.8185 21.7064 21.016 21.8749 21.2542C22.9032 22.7183 23.9258 24.1882 24.9483 25.6581C25.1458 25.9428 25.355 26.2217 25.5467 26.518C26.0522 27.2849 25.8895 28.168 25.1459 28.6851C24.4777 29.1557 23.5656 28.9814 23.0485 28.2551C21.9969 26.7678 20.9685 25.2747 19.9286 23.7815C19.6613 23.3981 19.3882 23.0262 19.1326 22.637C19.028 22.4801 18.8886 22.4046 18.7027 22.3813C16.675 22.1722 15.3446 20.0806 16.1986 18.082C16.402 17.5998 16.7215 17.1931 17.1572 16.9026C17.4419 16.7109 17.5233 16.4785 17.5233 16.1473C17.5116 13.8175 17.5175 11.482 17.5175 9.15219C17.5175 8.87332 17.5233 8.59444 17.6627 8.333C18.0171 7.66486 18.6446 7.37437 19.3941 7.53704C20.0622 7.68229 20.5328 8.26909 20.5386 9.02438C20.556 10.2328 20.5444 11.4529 20.5444 12.673Z" fill="#E6E6E6"/>
</svg>
