<svg xmlns="http://www.w3.org/2000/svg" viewBox="0 0 232.91 232.71"><defs><style>.cls-1{fill:#ccc;}</style></defs><g id="Layer_2" data-name="Layer 2"><g id="Layer_1-2" data-name="Layer 1"><path class="cls-1" d="M206.15,103.09c8-11.34,11.72-23.23,10.42-36.24-3.4-34.14-30-55.15-64.62-51.46-6.28.67-10.93-3.09-11.74-9.51-.45-3.52,2.44-3.62,4.54-4.06,14.7-3.09,29.18-2.45,43.12,3.48,39.85,17,55.38,62.8,34.21,100.65l-.74,1.3c-3.05,5.43-3,5.6,3.07,6l1,0c4.12.26,7.15,1.93,7.47,6.45s-2.27,7.29-6.6,7.9c-7.25,1-14.54,1.73-21.83,2.46-14.27,1.43-16.18-.38-15.26-14.62.46-7.14,1-14.28,1.79-21.39.62-5.24,4-8.05,8.14-7.53s6.61,4,6.45,9.2C205.51,97.82,204.59,100,206.15,103.09Z"/><path class="cls-1" d="M104,71.26c.37,14.89,5.37,27.82,15.94,38.29,17.4,17.23,23.36,38.2,20.89,62.07a8.26,8.26,0,0,1-.22,1.48c-.88,3-.16,7.42-3.29,8.39-3.73,1.16-7-2.25-10.24-4.17-2.1-1.25-1.54-3.46-1.26-5.45,1.41-10.19,1-20.22-2.32-30.08-3-8.76-8.53-15.74-14.64-22.4-22.66-24.66-25.75-57.56-8.1-86.16.75-1.22,2.3-2.4,1.45-4s-2.69-.89-4.12-1c-1.16-.09-2.34,0-3.5-.1-3.79-.3-6.34-2.29-6.85-6.07-.54-4.07,1.78-6.6,5.48-7.86s7.59-.86,11.39-1.23c6.29-.62,12.59-1.37,18.9-1.61,6-.22,8.71,2.59,8.36,8.55-.53,9.13-1.29,18.26-2.21,27.37-.5,5-3.53,7.77-7.61,7.66s-6.55-3.18-7-8.2c-.16-1.89.94-5-1.07-5.4-2.34-.51-2.84,2.73-3.82,4.51C105.81,53.79,104.23,62.4,104,71.26Z"/><path class="cls-1" d="M102.21,205.85c-2.87-1.39-5.58-.5-8.17-.81-3.9-.47-6.75-2.24-7.18-6.35-.45-4.35,2.11-7.41,6.1-7.82,10.41-1.06,20.89-1.71,31.36-2,4-.12,6.58,2.89,6.51,6.88A191.71,191.71,0,0,1,127.75,227c-.76,4.07-4,6.25-8.19,5.6s-5.85-3.88-6.14-7.95c-.14-2,1.72-4.77-.71-5.94-2.11-1-3.77,1.56-5.6,2.57C83.94,234.1,60.22,235.33,37,222.5,13.36,209.47.55,189,0,161.56a66.16,66.16,0,0,1,1.77-17.84c.82-3.23,2.39-4,5.42-2.47,9.49,4.83,8.27,4.07,7.33,12.46C12,176.18,20.24,194.5,39,207.09c18.57,12.46,38.37,12.87,58.31,2.76C99,209,101,208.21,102.21,205.85Z"/><path class="cls-1" d="M40.67,114.15c2.3,1.19,4.27.17,6.21.26,4.82.22,7.93,2.86,8.12,7s-2.18,7-6.92,7.55q-14.37,1.53-28.8,2.53c-4.67.33-7.83-2.31-7.94-7-.26-10.48,1-20.9,2.44-31.26.53-3.89,3.61-6,7.61-5.74s5.91,3,6.66,6.9c.53,2.81-2,6.92,1.1,8,1.84.67,5-2.54,7.66-3.93a69.27,69.27,0,0,1,35-8.32c4.39.12,10.48,9,9,13.14-1,2.64-3.37,1.61-5.2,1.41-10.75-1.17-20.82,1.09-30.42,5.82C43.58,111.38,41.74,112,40.67,114.15Z"/><path class="cls-1" d="M162.89,141.43c-8.32-.22-12.33-4.1-12.65-12.35-.09-2.45,1.36-2.89,3.18-2.59,6.36,1,12.58.24,18.76-1.2,3-.71,4.55.72,5.92,3.18,5,8.94,4.6,10-5.35,11.75C169.49,140.8,166.18,141,162.89,141.43Z"/></g></g></svg>