<svg width="49" height="48" viewBox="0 0 49 48" fill="none" xmlns="http://www.w3.org/2000/svg">
<path d="M10.2997 32.1698C10.2997 32.5928 10.2997 32.9267 10.2997 33.2383C6.32787 34.0397 3.17717 32.4592 1.8596 28.2963C0.484744 23.8886 2.2415 20.4826 6.97711 18.0561C6.00326 8.72862 13.9278 2.65128 20.7638 6.85867C22.1196 5.05551 23.7618 3.63078 25.7095 2.74033C32.622 -0.398516 40.5083 4.83289 41.6922 13.2922C41.7495 13.7152 42.1696 14.1604 42.5324 14.4275C45.7977 16.6982 47.4016 20.0374 47.0197 24.4451C46.6569 28.4299 44.7665 31.2348 41.5776 32.7041C40.5847 33.1715 39.458 33.2829 38.2932 33.5723C38.2932 32.9267 38.2932 32.5705 38.2932 32.192C40.1264 32.0585 41.8259 31.5019 43.2389 30.1217C47.4971 25.9811 46.676 18.1674 41.6731 15.4293C41.0239 15.0731 40.7374 14.6724 40.6229 13.8265C39.7827 7.77139 35.7727 3.54174 30.5406 3.11877C25.6713 2.74033 21.2412 6.39118 19.6563 12.1123C19.6181 12.2904 19.5227 12.4463 19.4463 12.6466C19.1026 12.5576 18.8161 12.4685 18.3388 12.335C18.8925 10.8212 19.4081 9.3742 19.9428 7.92722C17.0021 5.70108 12.3238 6.74737 9.91777 10.2424C8.39016 12.4685 7.77911 15.0063 8.2183 17.8335C8.37106 18.7685 8.31378 19.4141 7.30173 19.5031C4.83845 19.748 2.47064 22.3525 2.60431 26.0257C2.71888 29.5207 5.0485 32.0362 8.08463 32.1698C8.81025 32.192 9.53587 32.1698 10.2997 32.1698Z" fill="#E6E6E6" stroke="#E6E6E6" stroke-width="2" stroke-miterlimit="10"/>
<path d="M28.1729 45.9275C27.7146 45.9275 27.409 45.9275 27.0271 45.9275C27.0271 44.8812 27.0271 43.8794 27.0271 42.8109C25.2895 42.8109 23.6282 42.8109 21.8523 42.8109C21.8523 43.8349 21.8523 44.8367 21.8523 45.9497C21.4513 45.972 21.1458 45.9943 20.7448 46.0165C20.7448 44.9257 20.7448 43.924 20.7448 42.7441C19.37 42.6773 18.1097 42.7886 17.0213 41.4752C15.9519 40.1841 15.7419 38.8484 15.8755 37.1343C14.8444 37.1343 13.9087 37.1343 12.9158 37.1343C12.8776 36.6445 12.8585 36.3106 12.8203 35.8431C13.8133 35.8431 14.7489 35.8431 15.7801 35.8431C15.7801 33.7728 15.7801 31.7915 15.7801 29.699C14.8062 29.699 13.8515 29.699 12.8776 29.699C12.8776 29.2315 12.8776 28.9198 12.8776 28.4746C13.8133 28.4746 14.768 28.4746 15.7992 28.4746C15.8755 26.8495 15.7419 25.3358 16.964 24.0669C18.0715 22.887 19.1981 22.5086 20.6684 22.7534C20.6684 21.5513 20.6684 20.4828 20.6684 19.3475C21.0885 19.3475 21.4132 19.3475 21.8142 19.3475C21.8142 20.416 21.8142 21.4846 21.8142 22.6199C23.5518 22.6199 25.2322 22.6199 26.9889 22.6199C26.9889 21.5513 26.9889 20.4828 26.9889 19.3475C27.3899 19.3029 27.6764 19.2807 28.0965 19.2584C28.0965 20.416 28.0965 21.5068 28.0965 22.7089C29.5859 22.5754 30.7889 22.8202 31.8964 24.1336C32.9657 25.4025 33.1376 26.7827 33.0039 28.4523C34.0542 28.4523 34.9517 28.4523 35.9064 28.4523C35.9064 28.8976 35.9064 29.2538 35.9064 29.7212C34.9517 29.7212 34.0542 29.7212 33.0803 29.7212C33.0803 31.7915 33.0803 33.7283 33.0803 35.7763C34.016 35.7763 34.9326 35.7763 35.8873 35.7763C35.8873 36.2438 35.8873 36.5777 35.8873 37.0675C34.9707 37.0675 34.0542 37.0675 33.0421 37.0675C33.0612 38.7148 32.9276 40.1173 31.8582 41.3862C30.7698 42.6996 29.5859 42.8109 28.1347 42.6996C28.1729 43.7904 28.1729 44.8144 28.1729 45.9275ZM24.4493 24.0223C22.7689 24.0223 21.0694 24.0223 19.3891 24.0223C18.377 24.0223 16.9449 25.6029 16.9258 26.7605C16.9067 30.723 16.9067 34.7078 16.9258 38.6703C16.9258 39.7611 18.377 41.4307 19.2936 41.4307C22.6925 41.453 26.1106 41.453 29.5095 41.4307C30.5025 41.4307 31.9155 39.7834 31.9155 38.6258C31.9155 34.6855 31.9155 30.7675 31.9155 26.8273C31.9155 25.6697 30.5025 24.0223 29.5095 24.0223C27.81 24.0001 26.1297 24.0223 24.4493 24.0223Z" fill="#E6E6E6" stroke="#E6E6E6" stroke-width="2" stroke-miterlimit="10"/>
</svg>
