<svg width="152" height="29" viewBox="0 0 152 29" fill="none" xmlns="http://www.w3.org/2000/svg">
<path d="M5.8 2.2251H1.7C0.761116 2.2251 0 2.98621 0 3.9251V8.0251C0 8.96398 0.761116 9.7251 1.7 9.7251H5.8C6.73888 9.7251 7.5 8.96398 7.5 8.0251V3.9251C7.5 2.98621 6.73888 2.2251 5.8 2.2251Z" fill="white"/>
<path d="M14.01 2.2251H9.90996C8.97108 2.2251 8.20996 2.98621 8.20996 3.9251V8.0251C8.20996 8.96398 8.97108 9.7251 9.90996 9.7251H14.01C14.9488 9.7251 15.71 8.96398 15.71 8.0251V3.9251C15.71 2.98621 14.9488 2.2251 14.01 2.2251Z" fill="white"/>
<path d="M5.8 10.3651H1.7C0.761116 10.3651 0 11.1262 0 12.0651V16.1651C0 17.104 0.761116 17.8651 1.7 17.8651H5.8C6.73888 17.8651 7.5 17.104 7.5 16.1651V12.0651C7.5 11.1262 6.73888 10.3651 5.8 10.3651Z" fill="white"/>
<path d="M14.01 10.3651H9.90996C8.97108 10.3651 8.20996 11.1262 8.20996 12.0651V16.1651C8.20996 17.104 8.97108 17.8651 9.90996 17.8651H14.01C14.9488 17.8651 15.71 17.104 15.71 16.1651V12.0651C15.71 11.1262 14.9488 10.3651 14.01 10.3651Z" fill="white"/>
<path opacity="0.5" d="M14.01 18.5151H9.90996C8.97108 18.5151 8.20996 19.2763 8.20996 20.2151V24.3151C8.20996 25.254 8.97108 26.0151 9.90996 26.0151H14.01C14.9488 26.0151 15.71 25.254 15.71 24.3151V20.2151C15.71 19.2763 14.9488 18.5151 14.01 18.5151Z" fill="white"/>
<path d="M5.8 18.5151H1.7C0.761116 18.5151 0 19.2763 0 20.2151V24.3151C0 25.254 0.761116 26.0151 1.7 26.0151H5.8C6.73888 26.0151 7.5 25.254 7.5 24.3151V20.2151C7.5 19.2763 6.73888 18.5151 5.8 18.5151Z" fill="white"/>
<path d="M30.71 17.3701H33.46C33.82 20.1501 34.93 22.5101 39.64 22.5101C42.64 22.5101 44.98 20.7401 44.98 18.0901C44.98 15.4401 43.77 14.3201 39.32 13.6101C34.41 12.8601 31.5 11.3201 31.5 7.17007C31.5 3.57007 34.61 0.820068 39.02 0.820068C43.7 0.820068 46.61 3.11007 47.07 7.26007H44.52C43.96 4.32007 42.23 3.11007 39.02 3.11007C35.81 3.11007 34.15 4.71007 34.15 6.90007C34.15 9.09007 35 10.3701 39.78 11.0901C44.98 11.9101 47.78 13.4801 47.78 17.9001C47.78 21.8201 44.34 24.8001 39.69 24.8001C33.4 24.8001 31.14 21.3201 30.71 17.3701Z" fill="white" stroke="white" stroke-miterlimit="10"/>
<path d="M53.3899 20.22V9.69H50.9299V7.4H53.3899V3.5H56.0999V7.4H60.0999V9.69H56.0999V19.96C56.0999 21.63 56.8499 22.44 58.2299 22.44C58.9432 22.4552 59.6528 22.333 60.3199 22.08V24.37C59.5756 24.6329 58.7889 24.755 57.9999 24.73C54.8899 24.73 53.3899 22.9 53.3899 20.22Z" fill="white" stroke="white" stroke-miterlimit="10"/>
<path d="M63.5601 19.7601C63.5601 15.7601 67.7501 14.4601 72.1301 14.4601H74.5901V13.2201C74.5901 10.5001 73.5901 9.3601 70.9201 9.3601C68.5701 9.3601 67.2601 10.3601 67.0001 12.4301H64.2801C64.6401 8.5401 67.7501 7.1001 71.0501 7.1001C74.3501 7.1001 77.3001 8.4401 77.3001 13.2201V24.5101H74.5901V22.3201C73.974 23.1473 73.161 23.8075 72.2249 24.2406C71.2888 24.6737 70.2594 24.866 69.2301 24.8001C66.0801 24.8001 63.5601 23.2601 63.5601 19.7601ZM74.5601 18.5201V16.3901H72.2301C68.8001 16.3901 66.2301 17.2401 66.2301 19.7601C66.2301 21.5301 67.0801 22.6401 69.4701 22.6401C72.3901 22.6401 74.5901 21.1701 74.5901 18.5201H74.5601Z" fill="white" stroke="white" stroke-miterlimit="10"/>
<path d="M83.6199 20.22V9.69H81.1599V7.4H83.6199V3.5H86.3299V7.4H90.3299V9.69H86.3299V19.96C86.3299 21.63 87.0799 22.44 88.4599 22.44C89.1732 22.4552 89.8828 22.333 90.5499 22.08V24.37C89.8056 24.6329 89.0189 24.755 88.2299 24.73C85.1199 24.73 83.6199 22.9 83.6199 20.22Z" fill="white" stroke="white" stroke-miterlimit="10"/>
<path d="M93.76 16.1301V15.8701C93.76 10.7001 97.06 7.1001 101.76 7.1001C105.76 7.1001 109.45 9.4901 109.45 15.6101V16.4901H96.57C96.7 20.3801 98.57 22.4901 102.07 22.4901C104.72 22.4901 106.26 21.4901 106.62 19.4901H109.33C108.74 22.9201 105.9 24.7201 102.04 24.7201C97.23 24.8001 93.76 21.4001 93.76 16.1301ZM106.68 14.3201C106.42 10.7701 104.59 9.3201 101.77 9.3201C98.95 9.3201 97.13 11.2201 96.67 14.2601L106.68 14.3201Z" fill="white" stroke="white" stroke-miterlimit="10"/>
<path d="M114.37 1.11011H117.23V24.5101H114.38L114.37 1.11011Z" fill="white" stroke="white" stroke-miterlimit="10"/>
<path d="M139 23.7501C137.466 24.4627 135.791 24.8216 134.1 24.8001C127.19 24.8001 122.52 19.5001 122.52 12.9601V12.7001C122.52 6.05007 127.16 0.820068 134.03 0.820068C140.9 0.820068 145.45 6.05007 145.45 12.6301V12.8901C145.498 14.7165 145.129 16.5299 144.37 18.1918C143.611 19.8538 142.482 21.3205 141.07 22.4801L144.01 25.7501L142.28 27.4201L139 23.7501ZM137.3 21.8601L134.69 18.9101L136.42 17.2401L139.42 20.6101C140.473 19.6237 141.297 18.4187 141.834 17.0798C142.371 15.7409 142.609 14.3006 142.53 12.8601V12.6001C142.53 7.36007 139.45 3.11007 134.05 3.11007C128.65 3.11007 125.48 7.11007 125.48 12.6601V12.9201C125.48 18.5801 129.24 22.4401 134.12 22.4401C135.208 22.4552 136.288 22.2582 137.3 21.8601Z" fill="white" stroke="white" stroke-miterlimit="10"/>
</svg>
