<svg width="17" height="25" viewBox="0 0 17 25" fill="none" xmlns="http://www.w3.org/2000/svg">
<path d="M6.3 0.225098H2.2C1.26112 0.225098 0.5 0.986214 0.5 1.9251V6.0251C0.5 6.96398 1.26112 7.7251 2.2 7.7251H6.3C7.23888 7.7251 8 6.96398 8 6.0251V1.9251C8 0.986214 7.23888 0.225098 6.3 0.225098Z" fill="#0B0B1D"/>
<path d="M14.51 0.225098H10.41C9.47108 0.225098 8.70996 0.986214 8.70996 1.9251V6.0251C8.70996 6.96398 9.47108 7.7251 10.41 7.7251H14.51C15.4488 7.7251 16.21 6.96398 16.21 6.0251V1.9251C16.21 0.986214 15.4488 0.225098 14.51 0.225098Z" fill="#0B0B1D"/>
<path d="M6.3 8.36523H2.2C1.26112 8.36523 0.5 9.12635 0.5 10.0652V14.1652C0.5 15.1041 1.26112 15.8652 2.2 15.8652H6.3C7.23888 15.8652 8 15.1041 8 14.1652V10.0652C8 9.12635 7.23888 8.36523 6.3 8.36523Z" fill="#0B0B1D"/>
<path d="M14.51 8.36523H10.41C9.47108 8.36523 8.70996 9.12635 8.70996 10.0652V14.1652C8.70996 15.1041 9.47108 15.8652 10.41 15.8652H14.51C15.4488 15.8652 16.21 15.1041 16.21 14.1652V10.0652C16.21 9.12635 15.4488 8.36523 14.51 8.36523Z" fill="#0B0B1D"/>
<path opacity="0.5" d="M14.51 16.5151H10.41C9.47108 16.5151 8.70996 17.2763 8.70996 18.2151V22.3151C8.70996 23.254 9.47108 24.0151 10.41 24.0151H14.51C15.4488 24.0151 16.21 23.254 16.21 22.3151V18.2151C16.21 17.2763 15.4488 16.5151 14.51 16.5151Z" fill="#0B0B1D"/>
<path d="M6.3 16.5151H2.2C1.26112 16.5151 0.5 17.2763 0.5 18.2151V22.3151C0.5 23.254 1.26112 24.0151 2.2 24.0151H6.3C7.23888 24.0151 8 23.254 8 22.3151V18.2151C8 17.2763 7.23888 16.5151 6.3 16.5151Z" fill="#0B0B1D"/>
</svg>
