<svg xmlns="http://www.w3.org/2000/svg" viewBox="0 0 115.79 27.82"><defs><style>.cls-1{stroke:#000;}.cls-1,.cls-2{stroke-miterlimit:10;}.cls-2{fill:#00a99d;stroke:#00a99d;}</style></defs><g id="Layer_2" data-name="Layer 2"><g id="Layer_1-2" data-name="Layer 1"><path class="cls-1" d="M.56,17.05H3.3c.36,2.78,1.48,5.14,6.19,5.14,3,0,5.33-1.77,5.33-4.42S13.61,14,9.16,13.29C4.25,12.54,1.34,11,1.34,6.85,1.34,3.25,4.45.5,8.87.5c4.67,0,7.59,2.29,8,6.44H14.36C13.81,4,12.1,2.79,8.87,2.79S4,4.39,4,6.58s.85,3.47,5.63,4.19c5.2.82,8,2.39,8,6.81,0,3.92-3.44,6.9-8.08,6.9C3.24,24.48,1,21,.56,17.05Z"/><path class="cls-1" d="M23.23,19.9V9.37H20.78V7.08h2.45V3.18h2.71v3.9h4V9.37h-4V19.64c0,1.67.76,2.48,2.13,2.48a5.52,5.52,0,0,0,2.09-.36v2.29a6.36,6.36,0,0,1-2.32.36C24.73,24.41,23.23,22.58,23.23,19.9Z"/><path class="cls-1" d="M33.4,19.44c0-4,4.19-5.3,8.57-5.3h2.46V12.9c0-2.72-1-3.86-3.67-3.86-2.35,0-3.66,1-3.92,3.07H34.12c.36-3.89,3.47-5.33,6.77-5.33s6.25,1.34,6.25,6.12V24.19H44.43V22a6.18,6.18,0,0,1-5.33,2.45C35.92,24.48,33.4,22.94,33.4,19.44Zm11-1.24V16.07H42.07c-3.43,0-6,.85-6,3.37,0,1.77.85,2.88,3.24,2.88C42.24,22.32,44.43,20.85,44.43,18.2Z"/><path class="cls-1" d="M53.46,19.9V9.37H51V7.08h2.46V3.18h2.71v3.9h4V9.37h-4V19.64c0,1.67.76,2.48,2.13,2.48a5.52,5.52,0,0,0,2.09-.36v2.29a6.36,6.36,0,0,1-2.32.36C55,24.41,53.46,22.58,53.46,19.9Z"/><path class="cls-1" d="M63.6,15.81v-.26c0-5.17,3.3-8.77,8-8.77,3.95,0,7.68,2.39,7.68,8.51v.88H66.41c.14,3.89,2,6,5.5,6,2.65,0,4.19-1,4.55-3h2.71c-.59,3.43-3.43,5.23-7.29,5.23C67,24.48,63.6,21.08,63.6,15.81ZM76.52,14C76.26,10.45,74.43,9,71.62,9S67,10.94,66.51,14Z"/><path class="cls-2" d="M84.21.79h2.85v23.4H84.21Z"/><path class="cls-2" d="M108.85,23.43a11.33,11.33,0,0,1-4.91,1.05c-6.9,0-11.58-5.3-11.58-11.84v-.26C92.36,5.73,97,.5,103.87.5s11.42,5.23,11.42,11.81v.26a12,12,0,0,1-4.38,9.59l2.94,3.27-1.73,1.67Zm-1.71-1.89-2.61-2.95,1.73-1.67,3,3.37a9.88,9.88,0,0,0,3.11-7.75v-.26c0-5.24-3.08-9.49-8.48-9.49s-8.57,4-8.57,9.55v.26c0,5.66,3.76,9.52,8.64,9.52A8.33,8.33,0,0,0,107.14,21.54Z"/></g></g></svg>