<svg width="117" height="29" viewBox="0 0 117 29" fill="none" xmlns="http://www.w3.org/2000/svg">
<path d="M1.20996 17.3701H3.95996C4.31996 20.1501 5.42996 22.5101 10.14 22.5101C13.14 22.5101 15.48 20.7401 15.48 18.0901C15.48 15.4401 14.27 14.3201 9.81996 13.6101C4.90996 12.8601 1.99996 11.3201 1.99996 7.17007C1.99996 3.57007 5.10996 0.820068 9.51996 0.820068C14.2 0.820068 17.11 3.11007 17.57 7.26007H15.02C14.46 4.32007 12.73 3.11007 9.51996 3.11007C6.30996 3.11007 4.64996 4.71007 4.64996 6.90007C4.64996 9.09007 5.49996 10.3701 10.28 11.0901C15.48 11.9101 18.28 13.4801 18.28 17.9001C18.28 21.8201 14.84 24.8001 10.19 24.8001C3.89996 24.8001 1.63996 21.3201 1.20996 17.3701Z" fill="#0B0B1D" stroke="#0B0B1D" stroke-miterlimit="10"/>
<path d="M23.8897 20.22V9.69H21.4297V7.4H23.8897V3.5H26.5997V7.4H30.5997V9.69H26.5997V19.96C26.5997 21.63 27.3497 22.44 28.7297 22.44C29.443 22.4552 30.1526 22.333 30.8197 22.08V24.37C30.0754 24.6329 29.2887 24.755 28.4997 24.73C25.3897 24.73 23.8897 22.9 23.8897 20.22Z" fill="#0B0B1D" stroke="#0B0B1D" stroke-miterlimit="10"/>
<path d="M34.0601 19.7601C34.0601 15.7601 38.2501 14.4601 42.6301 14.4601H45.0901V13.2201C45.0901 10.5001 44.0901 9.3601 41.4201 9.3601C39.0701 9.3601 37.7601 10.3601 37.5001 12.4301H34.7801C35.1401 8.5401 38.2501 7.1001 41.5501 7.1001C44.8501 7.1001 47.8001 8.4401 47.8001 13.2201V24.5101H45.0901V22.3201C44.474 23.1473 43.661 23.8075 42.7249 24.2406C41.7888 24.6737 40.7594 24.866 39.7301 24.8001C36.5801 24.8001 34.0601 23.2601 34.0601 19.7601ZM45.0601 18.5201V16.3901H42.7301C39.3001 16.3901 36.7301 17.2401 36.7301 19.7601C36.7301 21.5301 37.5801 22.6401 39.9701 22.6401C42.8901 22.6401 45.0901 21.1701 45.0901 18.5201H45.0601Z" fill="#0B0B1D" stroke="#0B0B1D" stroke-miterlimit="10"/>
<path d="M54.1202 20.22V9.69H51.6602V7.4H54.1202V3.5H56.8302V7.4H60.8302V9.69H56.8302V19.96C56.8302 21.63 57.5802 22.44 58.9602 22.44C59.6735 22.4552 60.383 22.333 61.0502 22.08V24.37C60.3059 24.6329 59.5191 24.755 58.7302 24.73C55.6202 24.73 54.1202 22.9 54.1202 20.22Z" fill="#0B0B1D" stroke="#0B0B1D" stroke-miterlimit="10"/>
<path d="M64.2598 16.1301V15.8701C64.2598 10.7001 67.5598 7.1001 72.2598 7.1001C76.2598 7.1001 79.9498 9.4901 79.9498 15.6101V16.4901H67.0698C67.1998 20.3801 69.0698 22.4901 72.5698 22.4901C75.2198 22.4901 76.7598 21.4901 77.1198 19.4901H79.8298C79.2398 22.9201 76.3998 24.7201 72.5398 24.7201C67.7298 24.8001 64.2598 21.4001 64.2598 16.1301ZM77.1798 14.3201C76.9198 10.7701 75.0898 9.3201 72.2698 9.3201C69.4498 9.3201 67.6298 11.2201 67.1698 14.2601L77.1798 14.3201Z" fill="#0B0B1D" stroke="#0B0B1D" stroke-miterlimit="10"/>
<path d="M84.8701 1.11011H87.7301V24.5101H84.8801L84.8701 1.11011Z" fill="#0B0B1D" stroke="#0B0B1D" stroke-miterlimit="10"/>
<path d="M109.5 23.7501C107.966 24.4627 106.291 24.8216 104.6 24.8001C97.69 24.8001 93.02 19.5001 93.02 12.9601V12.7001C93.02 6.05007 97.66 0.820068 104.53 0.820068C111.4 0.820068 115.95 6.05007 115.95 12.6301V12.8901C115.998 14.7165 115.629 16.5299 114.87 18.1918C114.111 19.8538 112.982 21.3205 111.57 22.4801L114.51 25.7501L112.78 27.4201L109.5 23.7501ZM107.8 21.8601L105.19 18.9101L106.92 17.2401L109.92 20.6101C110.973 19.6237 111.797 18.4187 112.334 17.0798C112.871 15.7409 113.109 14.3006 113.03 12.8601V12.6001C113.03 7.36007 109.95 3.11007 104.55 3.11007C99.15 3.11007 95.98 7.11007 95.98 12.6601V12.9201C95.98 18.5801 99.74 22.4401 104.62 22.4401C105.708 22.4552 106.788 22.2582 107.8 21.8601Z" fill="#0B0B1D" stroke="#0B0B1D" stroke-miterlimit="10"/>
</svg>
