<?xml version="1.0" encoding="utf-8"?>
<!-- Generator: Adobe Illustrator 27.9.0, SVG Export Plug-In . SVG Version: 6.00 Build 0)  -->
<svg version="1.1" id="Layer_1" xmlns="http://www.w3.org/2000/svg" xmlns:xlink="http://www.w3.org/1999/xlink" x="0px" y="0px"
	 viewBox="0 0 404 72" enable-background="new 0 0 404 72" xml:space="preserve">
<g>
	<g>
		<path fill="#54ADAD" d="M17.9,0H3.1C1.4,0,0,1.4,0,3.1v14.7C0,19.6,1.4,21,3.1,21h14.7c1.7,0,3.1-1.4,3.1-3.1V3.1
			C21,1.4,19.6,0,17.9,0z"/>
		<path fill="#54ADAD" d="M41.5,0.2H26.7c-1.7,0-3.1,1.4-3.1,3.1V18c0,1.7,1.4,3.1,3.1,3.1h14.7c1.7,0,3.1-1.4,3.1-3.1V3.3
			C44.6,1.6,43.2,0.2,41.5,0.2z"/>
		<path fill="#FFFFFF" d="M17.9,23.4H3.1c-1.7,0-3.1,1.4-3.1,3.1v14.7c0,1.7,1.4,3.1,3.1,3.1h14.7c1.7,0,3.1-1.4,3.1-3.1V26.5
			C21,24.8,19.6,23.4,17.9,23.4z"/>
		<path fill="#54ADAD" d="M41.5,23.6H26.7c-1.7,0-3.1,1.4-3.1,3.1v14.7c0,1.7,1.4,3.1,3.1,3.1h14.7c1.7,0,3.1-1.4,3.1-3.1V26.7
			C44.6,25,43.2,23.6,41.5,23.6z"/>
		<path fill="#FFFFFF" d="M17.9,46.8H3.1C1.4,46.8,0,48.2,0,50v14.7c0,1.7,1.4,3.1,3.1,3.1h14.7c1.7,0,3.1-1.4,3.1-3.1V50
			C21,48.2,19.6,46.8,17.9,46.8z"/>
		<path fill="#FFFFFF" d="M41.5,47H26.7c-1.7,0-3.1,1.4-3.1,3.1v14.7c0,1.7,1.4,3.1,3.1,3.1h14.7c1.7,0,3.1-1.4,3.1-3.1V50.1
			C44.6,48.4,43.2,47,41.5,47z"/>
	</g>
	<g>
		<path fill="#FFFFFF" d="M79.1,63.8c-5.1,0-9-1-11.8-3.1c-2.8-2-4.6-5.2-5.3-9.5c-0.1-1.3,0.1-2.3,0.8-2.9c0.7-0.7,1.6-1,2.8-1
			s2.2,0.3,2.7,0.9c0.6,0.6,1,1.5,1.2,2.8c0.4,2,1.4,3.4,2.9,4.2c1.5,0.8,3.7,1.1,6.7,1.1h12.8c3.8,0,6.4-0.7,7.8-2.1
			c1.4-1.4,2.1-3.9,2.1-7.7c0-3.8-0.7-6.4-2.1-7.8c-1.4-1.4-4-2.1-7.7-2.1h-11c-5.6,0-9.7-1.4-12.5-4.1c-2.7-2.7-4.1-6.9-4.1-12.5
			c0-5.6,1.3-9.7,4-12.4c2.7-2.7,6.8-4,12.4-4h10.6c4.7,0,8.4,1,11.1,2.9c2.7,1.9,4.4,4.9,5.1,8.8c0.2,1.3-0.1,2.2-0.7,2.9
			c-0.7,0.7-1.6,1-2.9,1c-1.2,0-2.1-0.3-2.7-0.9c-0.6-0.6-1-1.5-1.2-2.7c-0.5-1.7-1.4-2.9-2.7-3.6c-1.3-0.6-3.3-1-6-1H80.8
			c-3.6,0-5.9,0.6-7.1,1.9c-1.2,1.3-1.8,3.6-1.8,7.1c0,3.5,0.6,5.9,1.9,7.2c1.2,1.3,3.6,2,7.2,2h11c5.8,0,10.2,1.4,13,4.3
			c2.9,2.8,4.3,7.2,4.3,13.1c0,5.9-1.4,10.2-4.3,13s-7.2,4.2-13.1,4.2H79.1z"/>
		<path fill="#FFFFFF" d="M139.2,63.8c-1.2,0-2.2-0.3-2.8-0.9s-0.9-1.6-0.9-2.8V11.1h-17.2c-1.2,0-2.2-0.3-2.8-0.9
			c-0.6-0.6-0.9-1.6-0.9-2.8c0-1.2,0.3-2.2,0.9-2.8c0.6-0.6,1.6-0.9,2.8-0.9h41.9c1.2,0,2.2,0.3,2.8,0.9s0.9,1.6,0.9,2.8
			c0,1.2-0.3,2.2-0.9,2.8c-0.6,0.6-1.6,0.9-2.8,0.9h-17.2v48.9c0,1.2-0.3,2.1-1,2.8C141.3,63.5,140.4,63.8,139.2,63.8z"/>
		<path fill="#FFFFFF" d="M165.7,63.4c-2.4-0.9-3.1-2.5-2.1-4.9l21.1-52c0.9-2,2.3-2.9,4.2-2.9h0.2c1.9,0.1,3.2,1.1,3.9,2.9l21.5,52
			c0.9,2.3,0.3,4-2,4.9c-2.3,0.9-4,0.2-4.9-2l-4.8-11.6h-27.7l-4.6,11.6C169.6,63.7,168,64.4,165.7,63.4z M178,42.3h21.7l-11.1-26.9
			L178,42.3z"/>
		<path fill="#FFFFFF" d="M238.6,63.8c-1.2,0-2.2-0.3-2.8-0.9c-0.6-0.6-0.9-1.6-0.9-2.8V11.1h-17.2c-1.2,0-2.2-0.3-2.8-0.9
			c-0.6-0.6-0.9-1.6-0.9-2.8c0-1.2,0.3-2.2,0.9-2.8s1.6-0.9,2.8-0.9h41.9c1.2,0,2.2,0.3,2.8,0.9c0.6,0.6,0.9,1.6,0.9,2.8
			c0,1.2-0.3,2.2-0.9,2.8c-0.6,0.6-1.6,0.9-2.8,0.9h-17.2v48.9c0,1.2-0.3,2.1-1,2.8C240.8,63.5,239.9,63.8,238.6,63.8z"/>
		<path fill="#FFFFFF" d="M278.9,63.8c-2.5,0-3.7-1.2-3.7-3.7V7.3c0-2.5,1.2-3.7,3.7-3.7h31.9c2.5,0,3.7,1.2,3.7,3.7
			s-1.2,3.7-3.7,3.7h-28.2v18.6h17.7c2.5,0,3.7,1.2,3.7,3.7c0,2.5-1.2,3.7-3.7,3.7h-17.7v19.2h28.2c2.5,0,3.7,1.2,3.7,3.7
			c0,2.5-1.2,3.7-3.7,3.7H278.9z"/>
		<path fill="#54ADAD" d="M332.4,63.8c-1.3,0-2.2-0.3-2.8-0.9c-0.6-0.6-0.9-1.5-0.9-2.8V7.4c0-1.3,0.3-2.2,0.9-2.8
			c0.6-0.6,1.5-0.9,2.8-0.9c1.3,0,2.2,0.3,2.8,0.9c0.6,0.6,0.9,1.5,0.9,2.8v52.7c0,1.3-0.3,2.2-0.9,2.8
			C334.7,63.5,333.7,63.8,332.4,63.8z"/>
		<path fill="#54ADAD" d="M372.4,63.8c-6.8,0-11.8-1.6-15-4.9c-3.2-3.2-4.9-8.3-4.9-15V23.4c0-6.8,1.6-11.9,4.9-15.1s8.3-4.8,15-4.7
			h10.7c6.8,0,11.8,1.6,15.1,4.8c3.2,3.2,4.8,8.2,4.8,15.1v20.4c0,6.8-1.6,11.8-4.8,15s-8.2,4.9-15.1,4.9H372.4z M372.4,56.3h10.7
			c3.2,0,5.7-0.4,7.5-1.1c1.8-0.8,3.1-2,3.8-3.8s1.1-4.3,1.1-7.5V23.5c0-3.1-0.4-5.6-1.1-7.4s-2-3.1-3.8-3.9
			c-1.8-0.8-4.3-1.2-7.5-1.2h-10.7c-3.1,0-5.6,0.3-7.4,1.1c-1.8,0.7-3.1,2-3.9,3.8c-0.8,1.8-1.2,4.3-1.2,7.5v20.5
			c0,3.2,0.4,5.7,1.1,7.5s2,3.1,3.8,3.8C366.7,56,369.2,56.3,372.4,56.3z M402.5,65.7c0.6,0.7,0.9,1.4,0.9,2.2
			c0,0.8-0.4,1.5-1.2,2.2c-1.5,1.4-2.9,1.3-4.4-0.1l-15.3-16.2c-0.7-0.7-1-1.4-1-2.2c0-0.8,0.4-1.5,1.1-2.2c1.5-1.4,3-1.4,4.5,0.1
			L402.5,65.7z"/>
	</g>
</g>
</svg>
