<?xml version="1.0" encoding="utf-8"?>
<!-- Generator: Adobe Illustrator 27.9.0, SVG Export Plug-In . SVG Version: 6.00 Build 0)  -->
<svg version="1.1" id="Layer_1" xmlns="http://www.w3.org/2000/svg" xmlns:xlink="http://www.w3.org/1999/xlink" x="0px" y="0px"
	 viewBox="0 0 400 90" style="enable-background:new 0 0 400 90;" xml:space="preserve">
<style type="text/css">
	.st0{fill:#54ADAD;}
	.st1{fill:#FFFFFF;}
</style>
<g id="Layer_1_00000047021553972752969250000002275556737516155017_">
	<g>
		<g>
			<g>
				<path class="st0" d="M23.7,2.1H9c-1.7,0-3.1,1.4-3.1,3.1V20c0,1.7,1.4,3.1,3.1,3.1h14.7c1.7,0,3.1-1.4,3.1-3.1V5.2
					C26.9,3.5,25.5,2.1,23.7,2.1z"/>
				<path class="st0" d="M47.3,2.3H32.6c-1.7,0-3.1,1.4-3.1,3.1v14.7c0,1.7,1.4,3.1,3.1,3.1h14.7c1.7,0,3.1-1.4,3.1-3.1V5.4
					C50.4,3.7,49,2.3,47.3,2.3z"/>
				<path class="st1" d="M23.7,25.5H9c-1.7,0-3.1,1.4-3.1,3.1v14.7c0,1.7,1.4,3.1,3.1,3.1h14.7c1.7,0,3.1-1.4,3.1-3.1V28.7
					C26.9,26.9,25.5,25.5,23.7,25.5z"/>
				<path class="st0" d="M47.3,25.7H32.6c-1.7,0-3.1,1.4-3.1,3.1v14.7c0,1.7,1.4,3.1,3.1,3.1h14.7c1.7,0,3.1-1.4,3.1-3.1V28.8
					C50.4,27.1,49,25.7,47.3,25.7z"/>
				<path class="st1" d="M23.7,48.9H9c-1.7,0-3.1,1.4-3.1,3.1v14.7c0,1.7,1.4,3.1,3.1,3.1h14.7c1.7,0,3.1-1.4,3.1-3.1V52.1
					C26.9,50.3,25.5,48.9,23.7,48.9z"/>
				<path class="st1" d="M47.3,49.1H32.6c-1.7,0-3.1,1.4-3.1,3.1V67c0,1.7,1.4,3.1,3.1,3.1h14.7c1.7,0,3.1-1.4,3.1-3.1V52.2
					C50.4,50.5,49,49.1,47.3,49.1z"/>
			</g>
		</g>
		<g>
			<path class="st1" d="M91,70.8c-3.6,0-6.5-0.4-8.9-1.3c-2.3-0.9-4-1.5-5-1.9c-0.8-0.4-1.5-0.7-1.9-1c-0.5-0.3-0.9-0.4-1.3-0.4
				c-0.3,0-0.6,0.1-0.9,0.3c-0.3,0.2-0.5,0.4-0.6,0.6c-0.6,0.7-1.2,1.2-1.7,1.4c-0.5,0.3-1,0.4-1.6,0.4c-0.7,0-1.2-0.2-1.6-0.6
				s-0.6-0.9-0.6-1.5c0.1-0.7,0.1-1.3,0.1-1.7c0-0.4,0-1.1,0-2c0-2.8-0.1-5.5-0.4-7.9c-0.3-2.5-0.4-4.3-0.4-5.5
				c0-1.1,0.2-1.8,0.7-2.2s1.1-0.6,1.7-0.6c1.4,0,2.2,0.6,2.6,1.9c0.2,0.7,0.5,1.8,0.9,3.1c0.4,1.4,1.2,3,2.2,4.9
				c1.2,2.1,2.6,3.9,4.3,5.4c1.7,1.5,3.7,2.7,5.8,3.5s4.3,1.2,6.5,1.2c1.7,0,3.3-0.3,4.9-0.9c1.5-0.6,2.8-1.5,3.8-2.8s1.5-3,1.4-5.2
				c-0.1-2.6-0.9-4.9-2.5-6.7s-3.7-3.5-6.1-4.9s-4.9-2.8-7.4-4.1c-2-1-4-2.1-6-3.3s-3.9-2.5-5.6-4s-3.1-3.3-4.1-5.3s-1.6-4.3-1.6-7
				s0.5-5.2,1.6-7.4s2.6-4,4.6-5.4c2-1.5,4.2-2.6,6.8-3.3c2.6-0.8,5.3-1.1,8.2-1.1c2.6,0,4.7,0.2,6.3,0.6c1.6,0.4,2.9,0.7,4,1.1
				c1,0.4,1.9,0.6,2.6,0.6s1.2-0.1,1.4-0.4c0.2-0.3,0.5-0.6,1-0.8c0.3-0.2,0.7-0.3,1.2-0.3c0.7,0,1.3,0.2,2,0.5c0.6,0.3,1,0.7,1,1.2
				c0,1.6,0.1,3.4,0.3,5.2c0.2,1.9,0.4,3.6,0.5,5.1s0.3,2.7,0.3,3.3c0,0.9-0.3,1.6-0.8,2s-1.1,0.6-1.8,0.6c-0.5,0-1-0.1-1.4-0.3
				c-0.4-0.2-0.6-0.4-0.8-0.7c-0.1-0.6-0.3-1.5-0.7-2.6c-0.4-1.1-0.9-2.3-1.6-3.6s-1.6-2.5-2.7-3.7s-2.5-2.1-4.2-2.9
				C94,9.5,92,9.1,89.8,9.1c-1.9,0-3.6,0.3-5.2,0.8s-3,1.4-4,2.7c-1,1.2-1.5,2.9-1.5,5.1s0.8,4.2,2.3,6s3.5,3.4,5.9,4.8
				s4.8,2.8,7.2,4.1c2.2,1.2,4.4,2.4,6.6,3.6c2.2,1.3,4.2,2.7,6,4.3s3.3,3.4,4.4,5.4s1.7,4.3,1.7,6.8c0,3.8-1,7-3.1,9.7
				c-2,2.7-4.7,4.8-8.1,6.2C98.7,70.1,95,70.8,91,70.8z"/>
			<path class="st1" d="M138,70.8c-2.5,0-4.8-0.3-6.8-1s-3.5-1.8-4.6-3.5c-1.1-1.6-1.7-3.9-1.7-6.8V30H120c-0.3,0-0.6-0.3-0.8-0.7
				c-0.2-0.4-0.3-0.8-0.3-1.2c0-1.2,0.4-1.8,1.2-2c2.3-0.4,4.2-1,5.6-1.9s2.6-2.2,3.5-3.9c0.9-1.7,1.7-4.1,2.3-7.1
				c0.1-0.5,0.4-0.8,0.8-1.1c0.4-0.3,1.1-0.4,2.1-0.4c1.1,0,1.8,0.1,2.1,0.4c0.4,0.2,0.6,0.6,0.6,1v12.3H148c0.4,0,0.6,0.2,0.8,0.5
				s0.3,0.6,0.3,1c0,0.9-0.1,1.6-0.4,2.1s-0.6,0.8-0.9,0.8h-10.6v25.9c0,2.5,0.2,4.4,0.5,5.7s0.8,2.2,1.5,2.7
				c0.6,0.5,1.4,0.7,2.4,0.7c1.3,0,2.6-0.2,3.9-0.6c1.3-0.4,2.5-0.9,3.6-1.5c0.4-0.2,0.7-0.1,1,0.3s0.5,0.9,0.6,1.5
				c0.1,0.6,0.1,0.9-0.2,1.1c-0.7,0.7-1.7,1.5-3.2,2.2c-1.5,0.8-3,1.4-4.7,1.9S139.4,70.8,138,70.8z"/>
			<path class="st1" d="M156,58.8c0-3,0.8-5.4,2.5-7.3c1.7-1.9,3.9-3.4,6.7-4.6c2.7-1.1,5.7-2,8.9-2.6s6.3-1,9.3-1.3v-7.2
				c0-1.7-0.3-3-0.8-4c-0.6-1-1.4-1.8-2.5-2.3s-2.5-0.8-4.1-0.8c-1.4,0-2.5,0.1-3.1,0.2s-1.2,0.3-1.5,0.5L164.8,41
				c-2.1,0-3.8-0.5-5.2-1.6c-1.4-1-2.1-2.5-2.1-4.4c0-1.7,0.6-3.2,1.9-4.5c1.2-1.3,2.9-2.4,4.9-3.3s4.2-1.6,6.6-2
				c2.4-0.4,4.7-0.7,7-0.7c3.4,0,6.2,0.3,8.5,1s4.2,1.6,5.6,2.8c1.4,1.2,2.4,2.6,3.1,4.1c0.6,1.6,1,3.2,1,5v23.2
				c0,1.2,0.2,2.2,0.5,3c0.3,0.9,0.7,1.3,1.2,1.3c0.4,0,1-0.1,1.7-0.2s1.2-0.2,1.5-0.3c0.5,0,0.9,0.2,1.1,0.8
				c0.3,0.5,0.4,1.1,0.4,1.6c0,0.4-0.1,0.6-0.3,0.8c-0.6,0.4-1.9,1-4.1,1.8c-2.1,0.8-4.7,1.2-7.8,1.2c-2.4,0-4-0.4-4.8-1.1
				s-1.3-2.3-1.3-4.6v-0.7c-1.9,2.2-4.1,3.8-6.7,4.8c-2.5,1-5.4,1.6-8.5,1.6c-1.8,0-3.7-0.4-5.7-1.2c-2-0.8-3.7-2-5.2-3.7
				C156.7,63.9,156,61.6,156,58.8z M169.2,58.4c0,1.6,0.5,3,1.5,4.3s2.5,1.9,4.5,1.9c2.1,0,3.8-0.4,5.1-1.2s2.3-1.6,3-2.3V46.4
				c-2.3,0.4-4.6,0.9-6.7,1.6c-2.2,0.7-3.9,1.8-5.3,3.4C169.9,53,169.2,55.3,169.2,58.4z"/>
			<path class="st1" d="M224.1,70.8c-2.5,0-4.8-0.3-6.8-1s-3.5-1.8-4.6-3.5c-1.1-1.6-1.7-3.9-1.7-6.8V30h-4.9
				c-0.3,0-0.6-0.3-0.8-0.7c-0.2-0.4-0.3-0.8-0.3-1.2c0-1.2,0.4-1.8,1.2-2c2.3-0.4,4.2-1,5.6-1.9s2.6-2.2,3.5-3.9
				c0.9-1.7,1.7-4.1,2.3-7.1c0.1-0.5,0.4-0.8,0.8-1.1s1.1-0.4,2.1-0.4c1.1,0,1.8,0.1,2.1,0.4c0.4,0.2,0.6,0.6,0.6,1v12.3H234
				c0.4,0,0.6,0.2,0.8,0.5s0.3,0.6,0.3,1c0,0.9-0.1,1.6-0.4,2.1s-0.6,0.8-0.9,0.8h-10.6v25.9c0,2.5,0.2,4.4,0.5,5.7s0.8,2.2,1.5,2.7
				c0.6,0.5,1.4,0.7,2.4,0.7c1.3,0,2.6-0.2,3.9-0.6c1.3-0.4,2.5-0.9,3.6-1.5c0.4-0.2,0.7-0.1,1,0.3s0.5,0.9,0.6,1.5
				c0.1,0.6,0.1,0.9-0.2,1.1c-0.7,0.7-1.7,1.5-3.2,2.2c-1.5,0.8-3,1.4-4.7,1.9S225.5,70.8,224.1,70.8z"/>
			<path class="st1" d="M264.7,70.8c-8.1,0-14.2-2.1-18-6.2c-3.9-4.1-5.8-9.9-5.8-17.3c0-4.9,1.1-9.1,3.2-12.5
				c2.2-3.4,5-5.9,8.5-7.7c3.5-1.7,7.4-2.6,11.5-2.6c4.3,0,7.8,0.6,10.5,1.9c2.7,1.2,4.8,3,6.2,5.2c1.4,2.2,2.4,4.9,2.9,8.1
				c0.2,1.1,0.3,2.2,0.4,3.5s0.1,2.5,0.1,3.8h-30c0,4.6,0.7,8.2,2,10.8c1.4,2.6,3,4.5,5.1,5.6c2,1.1,4.1,1.7,6.1,1.7
				c2.5,0,4.7-0.4,6.6-1.2s3.4-2.1,4.7-3.8c0.1-0.1,0.2-0.3,0.4-0.5c0.1-0.2,0.4-0.2,0.7-0.2l2,0.9c0.3,0.1,0.4,0.3,0.4,0.5
				c0,0.1,0,0.2-0.1,0.4c0,0.1-0.1,0.3-0.2,0.4c-1.4,2.6-3.6,4.8-6.4,6.4S269.1,70.8,264.7,70.8z M254.4,43.1L271,43
				c0-5.1-0.6-8.8-1.8-11.1c-1.2-2.3-2.9-3.4-5.2-3.4c-1.6,0-3.1,0.4-4.5,1.3s-2.5,2.4-3.4,4.5C255.2,36.4,254.6,39.3,254.4,43.1z"
				/>
			<path class="st0" d="M293.7,69.5c-0.5,0-0.9-0.3-1.1-0.9c-0.3-0.6-0.4-1-0.4-1.4c0-1,0.5-1.5,1.5-1.6c1.4-0.1,2.8-0.4,4.3-0.8
				c1.4-0.4,2.1-1.1,2.1-2.1V14.8c0-1.3-0.4-2.2-1.1-2.8c-0.8-0.6-1.6-1-2.7-1.2c-1-0.2-2-0.3-2.9-0.4c-0.6-0.1-1-0.2-1.3-0.4
				c-0.2-0.2-0.3-0.6-0.3-1.3c0-0.3,0.1-0.8,0.4-1.4c0.2-0.6,0.6-0.9,1.1-0.9h26.4c0.5,0,0.9,0.3,1.1,0.9s0.4,1,0.4,1.4
				c0,1-0.5,1.5-1.5,1.6c-1.5,0.1-3,0.4-4.3,0.8c-1.4,0.4-2.1,1.1-2.1,2.1v47.9c0,1.3,0.4,2.2,1.1,2.8c0.8,0.6,1.7,1,2.7,1.1
				c1,0.2,2,0.3,2.9,0.4c0.6,0.1,1,0.2,1.3,0.4c0.2,0.2,0.3,0.6,0.3,1.3c0,0.3-0.1,0.8-0.4,1.4s-0.6,0.9-1.1,0.9L293.7,69.5
				L293.7,69.5z"/>
			<path class="st0" d="M370.6,69.8c0.2,1.4,0.6,2.9,1.2,4.4c0.6,1.6,1.5,3,2.8,4.4s3.1,2.5,5.4,3.3c2.3,0.9,5.2,1.3,8.8,1.2v3.7
				c-0.6,0.3-1.7,0.5-3.2,0.8s-3.5,0.4-5.8,0.4s-4.8-0.2-7.3-0.7c-2.5-0.4-5-1.3-7.3-2.5s-4.3-3.1-6-5.4c-1.7-2.4-2.9-5.5-3.7-9.3
				c-5.3-0.9-9.9-3-13.6-6c-3.8-3.1-6.6-6.9-8.6-11.5s-3-9.5-3-14.9c0-6.1,1.3-11.5,3.9-16.4s6.2-8.8,11-11.7s10.5-4.3,17.2-4.3
				c6.6,0,12.3,1.4,17.1,4.3c4.8,2.9,8.4,6.8,10.9,11.7s3.8,10.4,3.8,16.4c0,5.1-0.9,9.9-2.8,14.3s-4.5,8.2-8,11.3
				C379.8,66.5,375.6,68.6,370.6,69.8z M345.4,37.9c0,5.9,0.6,11,1.7,15.3s2.9,7.6,5.4,9.9c2.5,2.3,5.8,3.5,9.9,3.5s7.4-1.2,9.8-3.5
				c2.4-2.3,4.2-5.6,5.2-9.9c1.1-4.3,1.6-9.4,1.6-15.3s-0.6-11-1.7-15.3c-1.1-4.2-2.9-7.5-5.4-9.8s-5.8-3.4-9.9-3.4
				s-7.3,1.1-9.8,3.4s-4.2,5.5-5.3,9.8C345.9,26.9,345.4,31.9,345.4,37.9z"/>
		</g>
	</g>
</g>
</svg>
